<svg xmlns="http://www.w3.org/2000/svg" version="1.1" xmlns:xlink="http://www.w3.org/1999/xlink" xmlns:svgjs="http://svgjs.dev/svgjs" width="1000" height="1000" viewBox="0 0 1000 1000"><rect width="1000" height="1000" fill="#ffffff"></rect><g transform="matrix(0.7,0,0,0.7,150.61875430940682,146.08680161943317)"><svg viewBox="0 0 244 247" data-background-color="#ffffff" preserveAspectRatio="xMidYMid meet" height="1012" width="1000" xmlns="http://www.w3.org/2000/svg" xmlns:xlink="http://www.w3.org/1999/xlink"><g id="tight-bounds" transform="matrix(1,0,0,1,-0.21567992643539924,-0.09999999999999432)"><svg viewBox="0 0 244.43135999999998 247.2" height="247.2" width="244.43135999999998"><g><svg></svg></g><g><svg viewBox="0 0 244.43135999999998 247.2" height="247.2" width="244.43135999999998"><g transform="matrix(1,0,0,1,0,90.59800012326656)"><svg viewBox="0 0 244.43135999999998 66.00399975346687" height="66.00399975346687" width="244.43135999999998"><g><svg viewBox="0 0 244.43135999999998 66.00399975346687" height="66.00399975346687" width="244.43135999999998"><g><svg viewBox="0 0 244.43135999999998 66.00399975346687" height="66.00399975346687" width="244.43135999999998"><g><svg viewBox="0 0 244.43135999999998 66.00399975346687" height="66.00399975346687" width="244.43135999999998"><g id="textblocktransform"><svg viewBox="0 0 244.43135999999998 66.00399975346687" height="66.00399975346687" width="244.43135999999998" id="textblock"><g><svg viewBox="0 0 244.43135999999998 66.00399975346687" height="66.00399975346687" width="244.43135999999998"><g transform="matrix(1,0,0,1,0,0)"><svg width="244.43135999999998" viewBox="1.1700000762939453 -33.88999938964844 126.75 34.22999954223633" height="66.00399975346687" data-palette-color="#636365"><path d="M10.77-32.15Q14.06-32.03 16.16-32.03 18.26-32.03 21.58-32.15 24.9-32.28 26.9-32.32L26.9-32.32Q28.13-32.32 30.27-32.81L30.27-32.81 31.2-25.34Q30.86-25 29.88-25L29.88-25Q29.49-25 29.39-25.24L29.39-25.24Q28.71-27.93 27.59-28.88 26.46-29.83 24.07-29.83L24.07-29.83Q19.53-29.83 19.34-29L19.34-29Q18.9-27.59 18.9-24.41L18.9-24.41 18.9-6.79Q18.9-4.15 19.34-2.54L19.34-2.54Q19.38-2.2 20.65-1.83 21.92-1.46 22.36-1.46L22.36-1.46Q22.56-1.46 22.56-0.59L22.56-0.59Q22.56-0.1 22.46 0.2L22.46 0.2Q21.83 0.15 20.58 0.05 19.34-0.05 18.29-0.1 17.24-0.15 16.26-0.15L16.26-0.15Q14.94-0.15 12.62 0 10.3 0.15 9.77 0.2L9.77 0.2Q9.57 0 9.57-0.59L9.57-0.59Q9.57-1.46 9.77-1.46L9.77-1.46Q10.35-1.46 11.6-1.81 12.84-2.15 12.99-2.54L12.99-2.54Q13.38-3.86 13.38-6.59L13.38-6.59 13.38-24.27Q13.38-28.32 12.94-29L12.94-29Q12.55-29.83 8.3-29.83L8.3-29.83Q5.91-29.83 4.79-28.88 3.66-27.93 2.93-25.29L2.93-25.29Q2.88-25 2.44-25L2.44-25Q1.51-25 1.17-25.39L1.17-25.39 2.1-32.81Q4.25-32.32 5.47-32.32L5.47-32.32Q7.47-32.28 10.77-32.15ZM41.79-2.83L41.79-2.83Q43.11-2.83 44.06-3.52 45.02-4.2 45.02-5.08L45.02-5.08 45.02-10.06Q44.68-9.91 43.58-9.57 42.48-9.23 41.89-8.98 41.31-8.74 40.52-8.3 39.74-7.86 39.38-7.23 39.01-6.59 39.01-5.86L39.01-5.86Q39.01-4.3 39.79-3.56 40.57-2.83 41.79-2.83ZM43.99-21.58L43.99-21.58Q47.02-21.58 48.53-20 50.05-18.41 50.05-14.55L50.05-14.55 50.05-4.93Q50.05-3.96 50.49-3.44 50.93-2.93 51.66-2.93L51.66-2.93Q52.39-2.93 53.32-3.56L53.32-3.56Q53.61-3.47 53.61-3.03L53.61-3.03Q53.61-2.05 53.32-1.56L53.32-1.56Q52.59-0.98 51.36-0.34 50.14 0.29 49.02 0.29L49.02 0.29Q47.9 0.29 46.82-0.54 45.75-1.37 45.41-2.34L45.41-2.34Q45.36-2.29 45.04-2.03 44.72-1.76 44.16-1.37 43.6-0.98 42.89-0.59 42.19-0.2 41.23 0.07 40.28 0.34 39.3 0.34L39.3 0.34Q36.86 0.34 35.32-1 33.79-2.34 33.79-4.69L33.79-4.69Q33.79-5.86 34.35-6.88 34.91-7.91 35.69-8.57 36.47-9.23 37.79-9.86 39.11-10.5 40.06-10.82 41.01-11.13 42.5-11.57 43.99-12.01 44.58-12.21L44.58-12.21Q45.02-12.4 45.02-12.99L45.02-12.99 45.02-15.67Q45.02-17.38 44.24-18.36 43.45-19.34 42.14-19.34L42.14-19.34Q40.67-19.34 39.84-18.43 39.01-17.53 39.01-15.87L39.01-15.87Q39.01-14.89 38.28-14.43 37.55-13.96 36.62-13.96L36.62-13.96Q34.81-13.96 34.08-15.14L34.08-15.14Q34.08-17.48 37.28-19.53 40.48-21.58 43.99-21.58ZM59.42-27.37Q58.54-28.27 58.54-29.52 58.54-30.76 59.42-31.64 60.3-32.52 61.57-32.52 62.84-32.52 63.72-31.64 64.59-30.76 64.59-29.52 64.59-28.27 63.72-27.37 62.84-26.46 61.57-26.46 60.3-26.46 59.42-27.37ZM64.5-16.31L64.5-6.93Q64.5-3.96 64.89-2.54L64.89-2.54Q64.99-2.2 66.21-1.83 67.43-1.46 67.87-1.46L67.87-1.46Q68.06-1.46 68.09-0.76 68.11-0.05 68.01 0.2L68.01 0.2Q67.67 0.15 65.4 0 63.13-0.15 62.06-0.15L62.06-0.15Q60.83-0.15 58.61 0 56.39 0.15 56.05 0.2L56.05 0.2Q55.85 0 55.85-0.73 55.85-1.46 56.05-1.46L56.05-1.46Q56.59-1.46 57.81-1.83 59.03-2.2 59.13-2.54L59.13-2.54Q59.47-4 59.47-6.1L59.47-6.1 59.47-14.06Q59.47-16.36 58.69-17.19L58.69-17.19Q58.25-17.68 57.56-17.92 56.88-18.16 56.39-18.21 55.9-18.26 55.9-18.36L55.9-18.36Q55.9-19.78 56.2-19.82L56.2-19.82Q57.56-19.92 60.15-20.41 62.74-20.9 64.01-21.29L64.01-21.29Q64.06-21.29 64.23-21.34 64.4-21.39 64.4-21.39L64.4-21.39Q64.64-21.39 64.79-21.04 64.94-20.7 64.89-20.51L64.89-20.51Q64.5-17.38 64.5-16.31L64.5-16.31ZM78.95-28.52L78.95-7.03Q78.95-4 79.29-2.64L79.29-2.64Q79.39-2.29 80.49-1.88 81.58-1.46 81.97-1.46L81.97-1.46Q82.12-1.46 82.15-0.78 82.17-0.1 82.07 0.15L82.07 0.15Q81.39 0.1 80.24 0.02 79.09-0.05 78.17-0.1 77.24-0.15 76.41-0.15L76.41-0.15Q75.48-0.15 74.55-0.1 73.63-0.05 72.5 0.02 71.38 0.1 70.65 0.15L70.65 0.15Q70.45-0.05 70.45-0.76 70.45-1.46 70.65-1.46L70.65-1.46Q71.18-1.46 72.28-1.88 73.38-2.29 73.48-2.64L73.48-2.64Q73.87-4.35 73.87-6.25L73.87-6.25 73.87-26.56Q73.87-28.42 73.58-29.88L73.58-29.88Q73.33-30.66 71.14-30.66L71.14-30.66 70.65-30.66Q70.35-30.66 70.35-31.25L70.35-31.25Q70.35-32.03 70.65-32.03L70.65-32.03Q72.16-32.18 73.53-32.42 74.89-32.67 75.8-32.91 76.7-33.15 77.36-33.37 78.02-33.59 78.41-33.74L78.41-33.74 78.75-33.89 78.85-33.89Q79.05-33.89 79.26-33.59 79.48-33.3 79.53-33.11L79.53-33.11Q78.95-31.25 78.95-28.52L78.95-28.52ZM95.25-19.29L95.25-19.29Q92.96-19.29 91.69-17.07 90.42-14.84 90.42-11.77L90.42-11.77Q90.42-7.81 92.01-4.88 93.59-1.95 96.43-1.95L96.43-1.95Q98.72-1.95 100.01-4.2 101.31-6.45 101.31-9.47L101.31-9.47Q101.31-12.01 100.67-14.18 100.04-16.36 98.62-17.82 97.21-19.29 95.25-19.29ZM95.89-21.58L95.89-21.58Q100.48-21.58 103.73-18.38 106.97-15.19 106.97-10.64L106.97-10.64Q106.97-6.1 103.77-2.88 100.58 0.34 95.94 0.34L95.94 0.34Q91.3 0.34 88.08-2.88 84.85-6.1 84.85-10.64L84.85-10.64Q84.85-15.23 88.05-18.41 91.25-21.58 95.89-21.58ZM123.91-21.58L123.91-21.58Q126.6-21.58 127.92-19.97L127.92-19.97Q127.92-15.82 125.57-15.82L125.57-15.82Q124.69-15.82 123.67-16.8 122.64-17.77 121.57-17.77L121.57-17.77Q120.06-17.77 119.2-16.24 118.35-14.7 118.35-13.04L118.35-13.04 118.35-6.93Q118.35-3.96 118.69-2.54L118.69-2.54Q118.79-2.2 119.98-1.83 121.18-1.46 121.62-1.46L121.62-1.46Q121.76-1.46 121.79-0.76 121.81-0.05 121.76 0.2L121.76 0.2Q121.37 0.15 119.18 0 116.98-0.15 115.86-0.15L115.86-0.15Q114.68-0.15 112.46 0 110.24 0.15 109.85 0.2L109.85 0.2Q109.66 0 109.66-0.73 109.66-1.46 109.85-1.46L109.85-1.46Q110.44-1.46 111.63-1.83 112.83-2.2 112.93-2.54L112.93-2.54Q113.27-4 113.27-6.1L113.27-6.1 113.27-14.06Q113.27-16.36 112.49-17.19L112.49-17.19Q112.1-17.68 111.39-17.92 110.68-18.16 110.22-18.21 109.75-18.26 109.75-18.36L109.75-18.36Q109.75-19.78 110-19.82L110-19.82Q112.24-20.02 117.86-21.29L117.86-21.29Q117.86-21.29 118.03-21.34 118.2-21.39 118.25-21.39L118.25-21.39Q118.44-21.39 118.59-21.04 118.74-20.7 118.71-20.48 118.69-20.26 118.64-19.8 118.59-19.34 118.52-18.82 118.44-18.31 118.44-18.16L118.44-18.16Q119.32-19.48 120.84-20.53 122.35-21.58 123.91-21.58Z" opacity="1" transform="matrix(1,0,0,1,0,0)" fill="#636365" class="undefined-text-0" data-fill-palette-color="primary" id="text-0"></path></svg></g></svg></g></svg></g></svg></g><g></g></svg></g></svg></g></svg></g><path d="M0 84.598L0 1 244.431 1 244.431 84.598 238.479 84.598 238.479 6.952 5.952 6.952 5.952 84.598 0 84.598M0 162.602L0 246.2 244.431 246.2 244.431 162.602 238.479 162.602 238.479 240.248 5.952 240.248 5.952 162.602 0 162.602" fill="#636365" stroke="transparent" data-fill-palette-color="primary"></path></svg></g><defs></defs></svg><rect width="244.43135999999998" height="247.2" fill="none" stroke="none" visibility="hidden"></rect></g></svg></g></svg>